<?xml version="1.0" encoding="utf-8"?>
<!-- Generator: Adobe Illustrator 25.4.1, SVG Export Plug-In . SVG Version: 6.00 Build 0)  -->
<svg version="1.1" id="Layer_1" xmlns="http://www.w3.org/2000/svg" xmlns:xlink="http://www.w3.org/1999/xlink" x="0px" y="0px"
	 viewBox="0 0 500 500" style="enable-background:new 0 0 500 500;" xml:space="preserve">
<style type="text/css">
	.st0{fill:#3BB8FF;}
</style>
<g>
	<path class="st0" d="M377.1,54.3c9.2,2.5,16.1,7.6,18.5,17.2c0.6,2.5,0.7,5.3,0.7,7.9c0,114.1,0,228,0.1,342
		c0,15.9-11.1,24.8-24.8,24.7c-72.4-0.1-144.9-0.1-217.3-0.1c-25.8,0-45.7-16.6-50.2-42.1c-0.6-3.1-0.6-6.3-0.6-9.5
		c0-96.2,0-192.6,0-288.9c0-25.3,14.9-44.5,38.7-50.2c1.8-0.4,3.4-0.9,5.1-1.3C224.1,54.3,300.6,54.3,377.1,54.3z M349.5,73.3
		c0,10.1,0,19.7,0,29.2c0,21.9,0,43.8,0,65.9c0,7.7-4.2,13.9-11,16.4c-6.1,2.2-13.1-0.1-18-6.1c-1.6-2-3.2-4.2-4.7-6.6
		c-4.1-6.6-8.2-13.1-12.3-19.7c-0.4,0.3-0.7,0.3-0.9,0.6c-4.2,6.7-8.3,13.4-12.7,20c-2,3.1-4.2,6.1-7,8.6
		c-8.9,7.7-22.2,3.7-25.3-7.7c-0.7-2.5-0.7-5.3-0.7-7.9c0-29.4,0-58.7,0-88.1c0-1.5,0-2.9,0-4.7c-1.5-0.1-2.3-0.1-3.2-0.1
		c-33,0-66.2,0-99.2,0c-3.1,0-6.1,0.3-9.1,1.2c-14.9,4.1-23.4,15.8-23.4,32.3c0,82.4,0,164.7,0,247.2c0,1.2,0.1,2.5,0.1,3.5
		c0.4,0.1,0.6,0.1,0.7,0.1c0.4-0.1,1-0.3,1.3-0.6c9.8-7,20.9-9.2,32.9-9.2c71.1,0.1,142.1,0,213.2,0c2.2,0,4.5,0,7.2,0
		c0-1.8,0-3.2,0-4.8c0-87.2,0-174.5,0-261.7c0-1.2,0-2.3,0-3.5c-0.1-2.5-1.5-4.1-4.1-4.1C365.9,73.3,358,73.3,349.5,73.3z
		 M377.3,387.7c0.3-0.7,0.4-0.9,0.4-1.2c0-4.1,0-8.2,0.1-12.3c0-7.6-0.4-8-8-8c-70.7,0-141.4,0-212,0c-2.5,0-5.1,0.1-7.6,0.3
		c-21,1.5-34.2,25.3-24.5,44c6.4,12.1,16.8,17.2,30.1,17.2c71.7,0,143.4,0,215.1,0c1.2,0,2.5,0.3,3.4-0.3c1.3-0.7,3.2-2,3.2-3.1
		c0.3-5.8,0.1-11.8,0.1-18c-2.2,0-3.8,0-5.4,0c-68.6,0-137.3,0.1-205.9,0.1c-1.9,0-3.8,0-5.7-0.3c-4.4-0.9-7.3-4.7-7.2-9.1
		c0-4.4,3.1-8,7.4-8.9c1.8-0.3,3.5-0.3,5.4-0.3c68.6-0.1,137.3-0.1,205.9-0.3C373.9,387.7,375.7,387.7,377.3,387.7z M330.4,159.9
		c0-29.6,0-58.1,0-86.7c-18.3,0-36.1,0-54,0c0,28.6,0,57.1,0,86.6c1.6-2.6,2.6-4.2,3.8-6c4.8-7.7,9.6-15.6,14.6-23.4
		c3.4-5.3,8.3-6.9,13-4.1c1.9,1.2,3.4,3.1,4.5,5C318.2,140.5,324,149.7,330.4,159.9z"/>
</g>
</svg>
