<svg width="40" height="60" viewBox="0 0 40 60" fill="none" xmlns="http://www.w3.org/2000/svg">
    <g clip-path="url(#7b3p51tw9a)">
        <path d="M20 30a10 10 0 1 1 20 0 10 10 0 0 1-20 0z" fill="#1ABCFE"/>
        <path d="M0 50a10 10 0 0 1 10-10h10v10a10 10 0 0 1-20 0z" fill="#0ACF83"/>
        <path d="M20 0v20h10a10 10 0 0 0 0-20H20z" fill="#FF7262"/>
        <path d="M0 10a10 10 0 0 0 10 10h10V0H10A10 10 0 0 0 0 10z" fill="#F24E1E"/>
        <path d="M0 30a10 10 0 0 0 10 10h10V20H10A10 10 0 0 0 0 30z" fill="#A259FF"/>
    </g>
    <defs>
        <clipPath id="7b3p51tw9a">
            <path fill="#fff" d="M0 0h40v60H0z"/>
        </clipPath>
    </defs>
</svg>
