<?xml version="1.0" encoding="utf-8"?>
<!-- Generator: Adobe Illustrator 25.4.1, SVG Export Plug-In . SVG Version: 6.00 Build 0)  -->
<svg version="1.1" id="Layer_1" xmlns="http://www.w3.org/2000/svg" xmlns:xlink="http://www.w3.org/1999/xlink" x="0px" y="0px"
	 viewBox="0 0 500 500" style="enable-background:new 0 0 500 500;" xml:space="preserve">
<style type="text/css">
	.st0{fill:#2061D9;}
</style>
<path class="st0" d="M456.2,87.9c0,107.8,0,215.6,0,323.4c-0.2,0.6-0.5,1.1-0.6,1.7c-3.9,17.1-16.7,27.4-34.3,27.4
	c-104.5,0-209,0-313.5,0c-20.1,0-34.8-14.6-34.8-34.7c0-104.1,0-208.3,0-312.4c0-3.2,0.4-6.5,1.2-9.6c4-15.3,17.2-25.1,33.9-25.1
	c80.4,0,160.9,0,241.3,0c24.2,0,48.4-0.1,72.6,0c14.5,0.1,24.9,6.9,31.2,20C454.5,81.6,455.2,84.9,456.2,87.9z M433.7,171.3
	c-113,0-225.6,0-338.3,0c0,1.7,0,3.2,0,4.7c0,76,0,151.9,0,227.9c0,10.3,3.9,14.2,14.2,14.2c103.3,0,206.5,0,309.8,0
	c10.3,0,14.3-3.9,14.3-14.2c0-76.1,0-152.2,0-228.3C433.7,174.3,433.7,172.9,433.7,171.3z M433.7,148.4c0-18.4,0-36.3,0-54.3
	c0-8.5-4.4-13-12.8-13c-104.3,0-208.5,0-312.8,0c-8.2,0-12.7,4.5-12.7,12.7c0,17.1,0,34.2,0,51.3c0,1.1,0.1,2.1,0.2,3.2
	C208.4,148.4,320.8,148.4,433.7,148.4z"/>
<path class="st0" d="M309.4,217c-0.2,0.7-0.5,2.3-1.1,3.8C286,272.9,263.7,324.9,241.4,377c-2.5,5.7-7.9,8.4-13.3,7
	c-5.3-1.4-8.9-6.4-8.4-11.8c0.2-1.7,0.8-3.4,1.5-5c22-51.5,44.1-103,66.2-154.5c2.6-6.1,7.7-9,13.3-7.8
	C305.8,206.2,309.5,210.8,309.4,217z"/>
<path class="st0" d="M159,294.6c11.3,9,22.1,17.6,32.8,26.3c3.9,3.1,7.8,6.2,11.7,9.4c5.4,4.5,6.4,11.1,2.4,16.2s-10.8,5.8-16.3,1.4
	c-18.4-14.7-36.8-29.4-55.2-44.2c-6.4-5.1-6.4-13.1,0.1-18.2c18.2-14.7,36.5-29.3,54.9-43.9c5.6-4.4,12.2-4,16.4,1
	c4.2,5.1,3.4,12-2.2,16.5c-13.5,10.9-27,21.7-40.6,32.5C161.8,292.3,160.6,293.3,159,294.6z"/>
<path class="st0" d="M369.9,294.5c-6.3-5-12.2-9.8-18.2-14.6c-8.6-6.9-17.1-13.7-25.7-20.6c-5.9-4.8-7-11.4-2.8-16.7
	c4.2-5.2,10.9-5.5,16.9-0.7c17.8,14.2,35.6,28.5,53.4,42.7c7.7,6.2,7.7,13.8,0,19.9c-17.7,14.2-35.4,28.3-53.1,42.5
	c-6.3,5-13,4.8-17.2-0.5c-4.3-5.3-3.1-11.9,3.1-16.9c13.4-10.8,26.9-21.5,40.3-32.2C367.6,296.5,368.6,295.6,369.9,294.5z"/>
<path class="st0" d="M365.5,103.7c10.8,0,21.7,0,32.5,0c7.3,0,12.4,4.6,12.4,11.1c0.1,6.7-5,11.3-12.5,11.4c-21.5,0-43.1,0-64.6,0
	c-7.5,0-12.6-4.6-12.6-11.3c0-6.6,5.1-11.1,12.7-11.2C344.1,103.6,354.8,103.7,365.5,103.7z"/>
<path class="st0" d="M141,114.8c0,6.1-5,11.2-11,11.3c-6.2,0.1-11.4-5.1-11.4-11.3c0.1-6.1,5.2-11.1,11.2-11.1
	C135.9,103.7,141,108.7,141,114.8z"/>
<path class="st0" d="M185.9,114.8c0.1,6.1-4.9,11.2-11,11.4c-6.2,0.1-11.5-5.1-11.4-11.3c0-6.1,5.1-11.1,11.2-11.2
	C180.7,103.6,185.8,108.7,185.9,114.8z"/>
<path class="st0" d="M219.6,103.7c6.1,0,11.2,5,11.2,11.1c0.1,6.2-5.2,11.4-11.4,11.3c-6.1-0.1-11.1-5.2-11.1-11.3
	C208.4,108.8,213.5,103.7,219.6,103.7z"/>
</svg>
