<?xml version="1.0" encoding="utf-8"?>
<!-- Generator: Adobe Illustrator 25.4.1, SVG Export Plug-In . SVG Version: 6.00 Build 0)  -->
<svg version="1.1" id="Layer_1" xmlns="http://www.w3.org/2000/svg" xmlns:xlink="http://www.w3.org/1999/xlink" x="0px" y="0px"
	 viewBox="0 0 500 500" style="enable-background:new 0 0 500 500;" xml:space="preserve">
<style type="text/css">
	.st0{fill:#6F00F0;}
</style>
<path class="st0" d="M424.7,436.1c-113.3,0-226.7,0-340,0c-15.1-6.2-18.4-11.2-18.4-27.8c0-108.2,0-216.4,0-324.6
	c0-15.4,9.1-24.5,24.5-24.5c22.2,0,44.4,0,66.6,0c87,0,173.9,0,260.9,0c5.8,0,11.2,1,16,4.5s7.1,8.6,8.9,14c0,113.4,0,226.7,0,340.1
	c-0.7,1.9-1.4,3.9-2.2,5.8C437.7,430.5,431.7,434,424.7,436.1z M81,133c0,1.6,0,2.8,0,4c0,91.4,0,182.8,0,274.1
	c0,8,2.3,10.3,10.3,10.3c108.9,0,217.8,0,326.7,0c8,0,10.4-2.3,10.4-10.2c0-91.4,0-182.8,0-274.1c0-1.3,0-2.6,0-4
	C312.5,133,197,133,81,133z M81,117.9c116,0,231.5,0,347.3,0c0-11.1,0-22,0-32.9c0-9-2.1-11-11.1-11C308.8,74,200.4,74,92,74
	c-1.1,0-2.2,0-3.3,0c-4.7,0.3-7.7,3-7.8,7.6C80.9,93.6,81,105.6,81,117.9z"/>
<path class="st0" d="M320.6,389.7c-21.1,0-42.2,0-63.3,0c-7.5,0-9.9-2.5-9.9-9.9c0-37.5,0-75.1,0-112.6c0-7.5,2.5-9.9,9.9-9.9
	c42.4,0,84.9,0,127.3,0c7.5,0,9.9,2.4,9.9,9.9c0,37.5,0,75.1,0,112.6c0,7.5-2.4,9.9-9.9,9.9C363.2,389.7,341.9,389.7,320.6,389.7z
	 M309.8,323.5c-16-14.2-31.6-28.1-47.5-42.2c0,28.4,0,56.2,0,84.5C278.3,351.5,293.9,337.7,309.8,323.5z M379.7,281.1
	c-16.2,14.4-31.8,28.3-47.6,42.4c16,14.2,31.6,28.1,47.6,42.3C379.7,337.3,379.7,309.7,379.7,281.1z M367.5,272.3
	c-31.4,0-61.9,0-93.1,0c15.8,14,31.1,27.6,46.5,41.4C336.4,299.8,351.7,286.3,367.5,272.3z M274.4,374.7c31.3,0,61.8,0,93,0
	c-15.8-14.1-31.2-27.7-46.5-41.4C305.3,347.2,290.1,360.8,274.4,374.7z"/>
<path class="st0" d="M255.1,166.7c43.1,0,86.1,0,129.2,0c8,0,10.3,2.3,10.3,10.3c0,13,0,26,0,39c0,7-2.6,9.6-9.6,9.6
	c-86.8,0-173.7,0-260.5,0c-7,0-9.6-2.6-9.6-9.6c0-13.2,0-26.5,0-39.7c0-7,2.6-9.6,9.6-9.6C168,166.7,211.5,166.7,255.1,166.7z
	 M129.8,210.6c83.5,0,166.6,0,249.8,0c0-9.9,0-19.5,0-29c-83.4,0-166.5,0-249.8,0C129.8,191.3,129.8,200.8,129.8,210.6z"/>
<path class="st0" d="M217.9,323.9c0,18.6,0,37.3,0,55.9c0,7.5-2.4,9.9-9.9,9.9c-27.7,0-55.4,0-83.2,0c-7.5,0-9.9-2.4-9.9-9.9
	c0-37.5,0-75.1,0-112.6c0-7.5,2.4-9.9,9.9-9.9c27.7,0,55.4,0,83.2,0c7.5,0,9.9,2.4,9.9,9.9C217.9,286.1,217.9,305,217.9,323.9z
	 M129.8,272.1c0,34.5,0,68.6,0,102.6c24.6,0,48.9,0,73.1,0c0-34.3,0-68.4,0-102.6C178.5,272.1,154.3,272.1,129.8,272.1z"/>
<path class="st0" d="M332.7,103.4c-4.5,0-9.1,0.1-13.6,0c-5-0.1-8.4-3.1-8.4-7.4s3.4-7.3,8.4-7.3c9.1-0.1,18.1-0.1,27.2,0
	c5,0,8.4,3.1,8.4,7.4s-3.4,7.2-8.4,7.3C341.7,103.4,337.2,103.4,332.7,103.4z"/>
<path class="st0" d="M391.5,103.4c-4.5,0-9.1,0.1-13.6,0c-5-0.1-8.4-3.1-8.4-7.4s3.4-7.3,8.4-7.3c9.1-0.1,18.1-0.1,27.2,0
	c5,0,8.4,3.1,8.4,7.4s-3.4,7.2-8.4,7.3C400.6,103.4,396.1,103.4,391.5,103.4z"/>
<path class="st0" d="M288.4,88.7c3.8-0.1,7.4,3.3,7.5,7.1c0.1,3.8-3.3,7.4-7.1,7.5c-3.8,0.1-7.4-3.3-7.5-7.1
	C281.1,92.3,284.5,88.8,288.4,88.7z"/>
</svg>
