<?xml version="1.0" encoding="utf-8"?>
<!-- Generator: Adobe Illustrator 25.4.1, SVG Export Plug-In . SVG Version: 6.00 Build 0)  -->
<svg version="1.1" id="Layer_1" xmlns="http://www.w3.org/2000/svg" xmlns:xlink="http://www.w3.org/1999/xlink" x="0px" y="0px"
	 viewBox="0 0 500 500" style="enable-background:new 0 0 500 500;" xml:space="preserve">
<style type="text/css">
	.st0{fill:#BA00D9;}
</style>
<path class="st0" d="M59.4,446c-10.3-4.7-13.8-11.3-9.9-22.6c3.2-9.3,7.6-18.4,12.7-26.9c11.2-18.9,25.2-35.9,39.4-52.7
	c0.8-0.9,1.6-1.9,1.8-2.2c-5.7-11.4-11.8-22-16.4-33.2c-39.6-96,13.3-207.2,112.7-237.5c97.2-29.6,198.2,25.5,225.2,123.3
	c3,10.7,4,22,5.9,33c0.2,1.1,0.4,2.2,0.7,3.3c0,7.5,0,15,0,22.5c-0.2,1-0.5,1.9-0.6,2.9c-1.3,8.5-2.1,17.1-3.9,25.5
	c-17.2,78.8-88.6,137.5-169.2,139.2c-36.7,0.8-70.5-8.6-101.4-28.4c-2.1-1.4-3.4-1.6-5.4,0.2c-5.4,4.8-11,9.4-16.7,13.8
	c-20.6,15.8-40.8,32.5-66.4,40C64.8,446,62.1,446,59.4,446z M164.5,381.9c60.7,40.8,156.5,36,215.6-33.9
	c57.8-68.4,49.6-172-18.4-231.6C293.7,56.9,190,63,129.3,130.3c-58.5,65-50.1,152.4-16.9,199.1c27.2-27.9,54.6-55.9,81.8-84.1
	c7.9-8.2,16.6-12.4,28-10c0.1-0.6,0.3-0.9,0.3-1.3c-0.1-18.3,9.3-30.2,25.4-37.4c16.5-7.4,34-7.3,51.4-4.8c7.1,1,10.2,9.1,6.1,15.1
	c-6.3,9.2-9,19.2-9.1,30.3c-0.2,18.3-11.3,30.9-29.1,34c-2.8,0.5-5.6,0.5-8.4,0.7c1.8,11.5-0.4,18.4-8.5,26.3
	C221.7,326.1,193.1,354,164.5,381.9z M192.7,264.3c-18.3,19.2-36.7,37.7-54.3,56.9c-21.1,22.8-41.1,46.6-58.9,72.1
	C73,402.6,68,413,62.8,423.2c-1.4,2.6-0.9,6.2-1.3,9.3c3.2-0.4,6.8,0.1,9.6-1.2c8.2-3.8,16.5-7.7,24-12.8
	c30.9-20.8,59-45.2,86.3-70.4c16.4-15.2,32.1-31,48.1-46.6c-0.7-0.9-1.1-1.3-1.5-1.8C216.4,288.1,204.9,276.6,192.7,264.3z
	 M291,203.5c-5.5,0-11.4-0.3-17.2,0.1c-8.6,0.5-17,2.3-24.7,6.7c-10,5.7-15.3,15.9-13.7,26.1c1.8,11.2,10.1,19.8,21.5,22.1
	c13.8,2.8,25.2-5.8,26.2-19.8c0.3-4.3,0.3-8.8,1.3-13C286.2,218.4,288.7,211.3,291,203.5z M239.2,292.1c0.7-0.9,1.3-2.2,2.3-3.1
	c7.1-7.2,7.1-14,0.1-21.1c-4.9-4.9-10.1-9.6-14.7-14.9c-6.9-8-17.5-7.9-24.1,2.5C214.8,267.6,226.7,279.6,239.2,292.1z"/>
<path class="st0" d="M163.1,241.9c-0.1,17.5-14.7,31.9-32.1,31.7c-17.6-0.2-31.9-14.5-31.8-32c0-17.4,14.6-32,32-31.9
	C148.8,209.7,163.2,224.2,163.1,241.9z M150.3,241.9c0.1-10.7-8.4-19.4-19-19.4c-10.4-0.1-19,8.4-19.3,18.9
	c-0.2,10.5,8.4,19.2,19.1,19.4C141.5,260.9,150.2,252.3,150.3,241.9z"/>
<path class="st0" d="M284.5,363.1c0,17.4-14.6,31.9-32,31.8c-17.6-0.1-31.9-14.4-31.9-31.9s14.4-32,31.8-32
	C270.1,331,284.5,345.4,284.5,363.1z M233.4,362.9c0,10.6,8.6,19.3,19.2,19.3c10.3,0,19.1-8.8,19.1-19.1c0-10.7-8.7-19.3-19.3-19.2
	C241.9,343.9,233.5,352.4,233.4,362.9z"/>
<path class="st0" d="M342,241.4c0.2-17.8,14.7-32.1,32.4-31.8c17.5,0.3,31.7,14.8,31.5,32.3s-14.8,31.8-32.2,31.6
	C356,273.4,341.8,258.9,342,241.4z M354.8,241.3c-0.1,10.8,8.3,19.3,19,19.4c10.5,0,19.1-8.3,19.3-18.8c0.2-10.5-8.4-19.2-19.1-19.4
	C363.7,222.2,354.9,230.9,354.8,241.3z"/>
<path class="st0" d="M252.6,152.1c-17.8,0-32.1-14.3-32.1-32.1c0-17.4,14.6-31.8,32-31.8c17.5,0.1,31.9,14.5,31.9,31.9
	C284.5,137.7,270.2,152.1,252.6,152.1z M252.5,139.3c10.5,0,19-8.4,19.1-18.9s-8.6-19.3-19.2-19.3c-10.3-0.1-19.1,8.6-19.1,19
	C233.4,130.8,241.8,139.3,252.5,139.3z"/>
<path class="st0" d="M338.4,359.3c-17.6,0-31.9-14.1-32-31.7c-0.1-17.7,14.3-32.1,32.1-32c17.6,0,31.8,14.3,31.7,31.9
	C370.2,345.2,356.1,359.2,338.4,359.3z M357.4,327.3c0-10.6-8.5-19-19-19c-10.6,0-19.3,8.7-19.2,19.2c0.1,10.6,8.8,19.1,19.5,19
	C349.2,346.4,357.5,337.9,357.4,327.3z"/>
<path class="st0" d="M134.9,155.7c0-17.7,14.1-31.8,31.8-31.8c17.9,0,32,14.2,31.9,32.1c-0.1,17.5-14.5,31.8-32,31.7
	C149,187.7,134.9,173.4,134.9,155.7z M166.7,136.7c-10.6,0-19,8.3-19.1,18.8c-0.1,10.7,8.5,19.4,19.1,19.4s19.2-8.7,19.2-19.3
	C185.8,145.1,177.3,136.7,166.7,136.7z"/>
<path class="st0" d="M370.2,155.8c0,17.6-14.2,31.9-31.8,31.9c-17.7,0-32.1-14.5-32-32.2c0.1-17.5,14.5-31.7,32.1-31.6
	C356.1,124,370.2,138.1,370.2,155.8z M338.4,136.7c-10.5,0-19.1,8.3-19.3,18.8c-0.1,10.5,8.5,19.4,19.1,19.4
	c10.5,0.1,19.1-8.4,19.2-18.9C357.5,145.3,349.2,136.8,338.4,136.7z"/>
</svg>
